<?xml version="1.0" encoding="UTF-8"?>
<svg version="1.1" xmlns="http://www.w3.org/2000/svg" width="512" height="512">
<path d="M0 0 C8.42894993 4.58444796 14.30723375 11.12038551 18.05078125 19.90258789 C19.33401477 24.68137857 19.24744257 29.16094285 19.1953125 34.0859375 C19.19106766 35.60473007 19.19106766 35.60473007 19.18673706 37.15420532 C19.17558254 40.37375938 19.15048646 43.59303065 19.125 46.8125 C19.1149641 49.00129805 19.10583931 51.19010049 19.09765625 53.37890625 C19.0756587 58.73186658 19.04222824 64.08466308 19 69.4375 C19.75619629 69.05416504 20.51239258 68.67083008 21.29150391 68.27587891 C24.11896329 66.84502755 26.94825512 65.41788353 29.77880859 63.99316406 C30.9995989 63.37776435 32.21966498 62.76092562 33.43896484 62.14257812 C35.19954793 61.25005031 36.96303259 60.36325352 38.7265625 59.4765625 C39.78439941 58.94240723 40.84223633 58.40825195 41.93212891 57.85791016 C51.31536793 53.5135138 62.60905296 52.42144307 72.5 56 C82.04657688 60.62912872 87.44439211 67.47956465 91 77.4375 C91.74924706 82.57957721 91.70636943 87.64684909 91.5859375 92.828125 C91.57471504 94.26827201 91.56618931 95.70844228 91.56021118 97.14862061 C91.53755119 100.89741835 91.47883584 104.64477009 91.4119873 108.39300537 C91.35006295 112.23446095 91.32309046 116.07615548 91.29296875 119.91796875 C91.22906132 127.42513085 91.12697155 134.93111109 91 142.4375 C91.80020569 142.42861755 92.60041138 142.41973511 93.42486572 142.4105835 C101.01462425 142.32999739 108.60417149 142.26931422 116.1942482 142.23025131 C120.09518125 142.20949259 123.99575692 142.18139359 127.89648438 142.13574219 C131.67017818 142.0918605 135.44353112 142.06827514 139.21746063 142.05799103 C140.64779771 142.05067466 142.07811892 142.03639054 143.50830841 142.01457977 C159.42166597 141.78183931 171.03082911 145.87707121 182.75 156.75 C193.54901481 168.1602798 195.46462928 180.72880917 195.29296875 195.8515625 C195.28736115 197.31700197 195.28309657 198.78244714 195.28010559 200.24789429 C195.26874821 204.07183852 195.23936178 207.89543124 195.20599365 211.71923828 C195.17509421 215.63439176 195.16155815 219.54960302 195.14648438 223.46484375 C195.11448141 231.12255466 195.06339818 238.77997774 195 246.4375 C196.63569946 246.40922119 196.63569946 246.40922119 198.30444336 246.38037109 C199.75373894 246.36512152 201.20303945 246.35033482 202.65234375 246.3359375 C203.72711975 246.31551392 203.72711975 246.31551392 204.8236084 246.29467773 C213.3793857 246.23102961 220.17946201 248.86041735 226.46875 254.734375 C233.62418337 262.69296925 235.31240149 270.72806513 235.3359375 281.171875 C235.3425943 282.20507874 235.3492511 283.23828247 235.35610962 284.30279541 C235.36621209 286.48472317 235.37092739 288.66668169 235.37060547 290.84863281 C235.37496728 294.16263644 235.41128237 297.47529518 235.44921875 300.7890625 C235.4550899 302.91666215 235.45905729 305.04426808 235.4609375 307.171875 C235.48249405 308.64113434 235.48249405 308.64113434 235.50448608 310.14007568 C235.44507985 319.22368765 232.98984476 327.17501471 226.703125 333.90625 C219.54938055 340.33805694 212.12336117 342.78578878 202.625 342.5625 C201.88894531 342.55347656 201.15289062 342.54445313 200.39453125 342.53515625 C198.5962112 342.51180144 196.79806089 342.47593836 195 342.4375 C195.00888245 343.23770569 195.01776489 344.03791138 195.0269165 344.86236572 C195.10750261 352.45212425 195.16818578 360.04167149 195.20724869 367.6317482 C195.22800741 371.53268125 195.25610641 375.43325692 195.30175781 379.33398438 C195.3456395 383.10767818 195.36922486 386.88103112 195.37950897 390.65496063 C195.38682534 392.08529771 195.40110946 393.51561892 195.42292023 394.94580841 C195.65566069 410.85916597 191.56042879 422.46832911 180.6875 434.1875 C169.42104688 444.85039314 157.059273 446.89343244 142.05935669 446.82518005 C140.55784708 446.82935862 139.05634062 446.83483899 137.55483997 446.84149987 C133.45036439 446.85590472 129.34609047 446.85172535 125.24160409 446.84433305 C120.80658876 446.83959135 116.37161642 446.85212009 111.93661499 446.86235046 C103.25638497 446.87952426 94.57622738 446.88038141 85.89598478 446.87513756 C78.83872884 446.87109193 71.78149427 446.87254408 64.72423935 446.87788582 C63.21612147 446.87900845 63.21612147 446.87900845 61.67753657 446.88015376 C59.63487268 446.88168528 57.5922088 446.88322363 55.54954492 446.88476873 C36.40473043 446.89848867 17.25995683 446.89305967 -1.88485672 446.88158352 C-19.3875085 446.87165198 -36.89005457 446.88459136 -54.39269005 446.90851771 C-72.37835294 446.93291852 -90.36396662 446.94251414 -108.34964573 446.93586498 C-118.44165377 446.93237491 -128.53358052 446.93459084 -138.62557602 446.95211601 C-147.21673757 446.96685027 -155.80776058 446.96745743 -164.39891945 446.9500451 C-168.77918871 446.94154277 -173.1592106 446.93936672 -177.53946686 446.95469666 C-181.55527513 446.96857671 -185.57062487 446.96373839 -189.58640684 446.94445742 C-191.0331477 446.94070722 -192.47992557 446.94359094 -193.92663334 446.95406907 C-209.70607044 447.06015928 -221.16730769 442.87130534 -232.75 432.125 C-241.68049658 422.68900362 -245.47833499 411.47858056 -245.38768005 398.65994263 C-245.39306559 397.72881523 -245.39845113 396.79768783 -245.40399987 395.83834445 C-245.41820402 392.74642105 -245.41119439 389.65493034 -245.40405273 386.56298828 C-245.40976026 384.33470315 -245.41672599 382.10642094 -245.42485046 379.87814331 C-245.44275509 373.84502196 -245.44161845 367.81204626 -245.43590808 361.77890635 C-245.4328122 356.73430874 -245.43891317 351.68973894 -245.44494683 346.6451453 C-245.45978324 334.06026812 -245.45618608 321.47547841 -245.44408352 308.89060782 C-245.43415451 297.98378839 -245.44708981 287.07713869 -245.47101771 276.17034544 C-245.49545356 264.94667321 -245.50460659 253.72307782 -245.49836498 242.49937236 C-245.49500024 236.20795443 -245.49737855 229.91667669 -245.51461601 223.62527847 C-245.53012372 217.70720291 -245.52608687 211.78945046 -245.50731087 205.87138748 C-245.50363555 203.70591797 -245.50670242 201.54042431 -245.51719666 199.37497711 C-245.59783329 181.35277748 -243.35792598 168.34406763 -230.6875 154.6875 C-223.97247843 148.33221173 -214.55319322 142.4543431 -205.02929688 142.43310547 C-203.95518555 142.46428467 -203.95518555 142.46428467 -202.859375 142.49609375 C-195.02602214 142.66211532 -189.35377728 142.61752231 -183.30737305 137.1809082 C-180.99087359 134.86635348 -178.7511682 132.49311777 -176.54785156 130.07080078 C-174.36043928 127.7626323 -171.93912315 125.83232186 -169.4375 123.875 C-165.28899743 120.55497959 -161.37472764 117.06700608 -157.5 113.4375 C-153.62527236 109.80799392 -149.71100257 106.32002041 -145.5625 103 C-141.18748028 99.49106861 -137.07979091 95.77905495 -133 91.9375 C-128.08691885 87.3113141 -123.04878279 82.96479313 -117.77734375 78.74609375 C-114.57557201 76.08470542 -111.53765082 73.28287754 -108.5 70.4375 C-103.76135857 65.99915094 -98.87880421 61.84607547 -93.8125 57.78125 C-90.60150195 55.10541829 -87.54970863 52.29391724 -84.5 49.4375 C-79.76133536 44.99917326 -74.87880674 40.8460775 -69.8125 36.78125 C-66.60149938 34.10541615 -63.54973865 31.29388862 -60.5 28.4375 C-55.72195085 23.96308681 -50.80786383 19.75666629 -45.69140625 15.66796875 C-42.78634218 13.2604338 -40.05823798 10.71211213 -37.3125 8.125 C-27.41942405 -0.9896508 -13.00802684 -5.34013733 0 0 Z " fill="#74553F" transform="translate(261,49.5625)"/>
<path d="M0 0 C1.46543947 0.0056076 2.93088464 0.00987218 4.39633179 0.01286316 C8.22027602 0.02422054 12.04386874 0.05360697 15.86767578 0.0869751 C19.78282926 0.11787454 23.69804052 0.1314106 27.61328125 0.14648438 C35.27099216 0.17848734 42.92841524 0.22957057 50.5859375 0.29296875 C50.66257881 1.54568825 50.66257881 1.54568825 50.74076843 2.82371521 C50.93707926 5.99534797 51.13764455 9.16667847 51.34086609 12.33787537 C51.46897274 14.35603342 51.59240481 16.37448651 51.71569824 18.39294434 C55.87055049 82.79811225 81.11935255 144.6565863 123.5859375 193.29296875 C124.22402344 194.03160156 124.86210937 194.77023437 125.51953125 195.53125 C127.19594456 197.46319051 128.88728957 199.38055839 130.5859375 201.29296875 C131.64748047 202.49373047 131.64748047 202.49373047 132.73046875 203.71875 C139.91397902 211.78337226 147.37144741 219.28401816 155.5859375 226.29296875 C156.48570312 227.081875 157.38546875 227.87078125 158.3125 228.68359375 C173.90952714 242.26155542 190.7887274 253.80223677 208.5859375 264.29296875 C209.35260742 264.74655762 210.11927734 265.20014648 210.90917969 265.66748047 C240.99050065 283.31474994 275.23717475 296.96740107 309.5859375 303.29296875 C309.5859375 303.62296875 309.5859375 303.95296875 309.5859375 304.29296875 C268.38714228 304.38457029 227.18836036 304.45503084 185.98948361 304.49723007 C181.12303448 304.50223276 176.25658555 304.50741006 171.39013672 304.51269531 C169.93693361 304.51426918 169.93693361 304.51426918 168.45437285 304.51587483 C152.77788849 304.53326912 137.10146295 304.56480144 121.42501345 304.60157993 C105.33358259 304.63901651 89.24218249 304.66121035 73.15070987 304.66932273 C63.22537304 304.67480486 53.30020246 304.69210533 43.37491682 304.72463462 C36.56418346 304.74581605 29.75353577 304.75216059 22.94277188 304.74697426 C19.01620464 304.74441812 15.08992746 304.7482726 11.16341209 304.76979065 C7.56170797 304.78938358 3.9604865 304.79015731 0.35875925 304.77656433 C-1.54713162 304.77409763 -3.45301758 304.79123512 -5.35882449 304.80929399 C-19.82045007 304.70966114 -30.63982714 299.74474838 -41.1640625 289.98046875 C-50.09455908 280.54447237 -53.89239749 269.33404931 -53.80174255 256.51541138 C-53.80712809 255.58428398 -53.81251363 254.65315658 -53.81806237 253.6938132 C-53.83226652 250.6018898 -53.82525689 247.51039909 -53.81811523 244.41845703 C-53.82382276 242.1901719 -53.83078849 239.96188969 -53.83891296 237.73361206 C-53.85681759 231.70049071 -53.85568095 225.66751501 -53.84997058 219.6343751 C-53.8468747 214.58977749 -53.85297567 209.54520769 -53.85900933 204.50061405 C-53.87384574 191.91573687 -53.87024858 179.33094716 -53.85814602 166.74607657 C-53.84821701 155.83925714 -53.86115231 144.93260744 -53.88508021 134.02581419 C-53.90951606 122.80214196 -53.91866909 111.57854657 -53.91242748 100.35484111 C-53.90906274 94.06342318 -53.91144105 87.77214544 -53.92867851 81.48074722 C-53.94418622 75.56267166 -53.94014937 69.64491921 -53.92137337 63.72685623 C-53.91769805 61.56138672 -53.92076492 59.39589306 -53.93125916 57.23044586 C-54.01189579 39.20824623 -51.77198848 26.19953638 -39.1015625 12.54296875 C-27.6912827 1.74395394 -15.12275333 -0.17166053 0 0 Z " fill="#624434" transform="translate(69.4140625,191.70703125)"/>
<path d="M0 0 C8.41533 5.70559374 14.28185209 12.37633796 16.953125 22.32421875 C17.2214924 25.87583575 17.1861192 29.41267267 17.1484375 32.97265625 C17.1456076 33.98518463 17.14277771 34.99771301 17.13986206 36.04092407 C17.12870754 39.26047813 17.10361146 42.4797494 17.078125 45.69921875 C17.0680891 47.8880168 17.05896431 50.07681924 17.05078125 52.265625 C17.0287837 57.61858533 16.99535324 62.97138183 16.953125 68.32421875 C17.70932129 67.94088379 18.46551758 67.55754883 19.24462891 67.16259766 C22.07208829 65.7317463 24.90138012 64.30460228 27.73193359 62.87988281 C28.9527239 62.2644831 30.17278998 61.64764437 31.39208984 61.02929688 C33.15267293 60.13676906 34.91615759 59.24997227 36.6796875 58.36328125 C38.26644287 57.56204834 38.26644287 57.56204834 39.88525391 56.74462891 C49.26849293 52.40023255 60.56217796 51.30816182 70.453125 54.88671875 C80.60088502 59.80736077 83.68103658 65.78004191 88.953125 76.32421875 C88.953125 97.77421875 88.953125 119.22421875 88.953125 141.32421875 C-3.446875 141.32421875 -95.846875 141.32421875 -191.046875 141.32421875 C-184.36532543 133.52907758 -184.36532543 133.52907758 -179.984375 130.13671875 C-175.66124667 126.69346728 -171.57255807 123.10313949 -167.546875 119.32421875 C-163.67259188 115.69428027 -159.75782615 112.20669801 -155.609375 108.88671875 C-151.23435528 105.37778736 -147.12666591 101.6657737 -143.046875 97.82421875 C-138.13379385 93.19803285 -133.09565779 88.85151188 -127.82421875 84.6328125 C-124.62244701 81.97142417 -121.58452582 79.16959629 -118.546875 76.32421875 C-113.80823357 71.88586969 -108.92567921 67.73279422 -103.859375 63.66796875 C-100.64837695 60.99213704 -97.59658363 58.18063599 -94.546875 55.32421875 C-89.80821036 50.88589201 -84.92568174 46.73279625 -79.859375 42.66796875 C-76.64837695 39.99213704 -73.59658363 37.18063599 -70.546875 34.32421875 C-65.80874029 29.88638835 -60.92883971 25.73186781 -55.859375 21.671875 C-52.63784798 18.98279481 -49.59844441 16.13984751 -46.546875 13.26171875 C-33.92470923 1.43766712 -17.52577816 -9.53215034 0 0 Z " fill="#43BB58" transform="translate(263.046875,50.67578125)"/>
<path d="M0 0 C1.38752724 -0.01073296 1.38752724 -0.01073296 2.80308533 -0.02168274 C3.81092575 -0.02437164 4.81876617 -0.02706055 5.85714722 -0.02983093 C7.45789848 -0.03968773 7.45789848 -0.03968773 9.09098816 -0.04974365 C12.62485832 -0.06946318 16.15868597 -0.08113725 19.69259644 -0.09111023 C20.90106106 -0.09518576 22.10952568 -0.09926128 23.35461044 -0.10346031 C29.75275247 -0.1243168 36.15087308 -0.13861953 42.54904175 -0.147995 C49.14631711 -0.15904944 55.74325427 -0.19343996 62.34041023 -0.23316669 C67.42263399 -0.2593571 72.50477753 -0.26768909 77.58706284 -0.27127647 C80.01823074 -0.27613728 82.44939519 -0.28773671 84.88049698 -0.30631447 C88.29095213 -0.33075311 91.70053692 -0.32973159 95.11105347 -0.32279968 C96.1067485 -0.33560974 97.10244354 -0.3484198 98.12831116 -0.36161804 C107.18808169 -0.29483079 115.1285222 2.17481336 121.84103394 8.44404602 C128.9964673 16.40264028 130.68468543 24.43773615 130.70822144 34.88154602 C130.71820663 36.43135162 130.71820663 36.43135162 130.72839355 38.01246643 C130.73849602 40.19439419 130.74321132 42.37635271 130.7428894 44.55830383 C130.74725121 47.87230746 130.78356631 51.1849662 130.82150269 54.49873352 C130.82737383 56.62633317 130.83134123 58.7539391 130.83322144 60.88154602 C130.84759247 61.86105225 130.8619635 62.84055847 130.87677002 63.8497467 C130.81736378 72.93335867 128.36212869 80.88468573 122.07540894 87.61592102 C114.10890519 94.77846568 106.11007777 96.44716354 95.66036987 96.43769836 C94.59291031 96.44441559 93.52545074 96.45113281 92.42564392 96.45805359 C88.90260134 96.47702485 85.3797494 96.48095755 81.85665894 96.48310852 C79.40054242 96.48953761 76.94442668 96.49626605 74.48831177 96.50328064 C69.34040553 96.51525164 64.19256639 96.51896169 59.04464722 96.51777649 C52.46309761 96.51757345 45.8819805 96.54486195 39.30053329 96.57932091 C34.22687828 96.60161055 29.15332695 96.60561337 24.07962799 96.60455704 C21.65405031 96.6069104 19.22846965 96.61571887 16.80294037 96.63122177 C13.40224861 96.65092033 10.00248431 96.64502744 6.60177612 96.63301086 C5.1129467 96.64986938 5.1129467 96.64986938 3.59403992 96.66706848 C-5.29394396 96.58766765 -13.52695025 94.18110307 -20.10037231 87.94795227 C-31.83304544 74.11480058 -30.59234999 52.91548905 -29.48269653 35.92695618 C-28.47447595 24.28502444 -25.8030317 13.00643128 -16.62771606 5.14717102 C-11.35414919 1.75631681 -6.27602732 0.03344714 0 0 Z " fill="#624434" transform="translate(365.6277160644531,295.8528289794922)"/>
<path d="M0 0 C8.84305699 5.32810089 11.21557879 10.39600132 16.171875 20.30859375 C16.171875 41.75859375 16.171875 63.20859375 16.171875 85.30859375 C-54.778125 85.30859375 -125.728125 85.30859375 -198.828125 85.30859375 C-195.59041199 82.88030899 -192.8147786 81.17934668 -189.23594666 79.39561462 C-187.52715584 78.54024109 -187.52715584 78.54024109 -185.78384399 77.66758728 C-184.52512065 77.04256217 -183.26636087 76.41761041 -182.00756836 75.79272461 C-180.67804276 75.12906305 -179.34869649 74.46504215 -178.01951599 73.8006897 C-175.1571391 72.3709673 -172.29351795 70.94377917 -169.42890739 69.51853752 C-164.88046545 67.25548945 -160.33489422 64.98671676 -155.78968811 62.71717834 C-148.57848469 59.11727016 -141.3654259 55.52109762 -134.15154606 51.92655617 C-121.29210936 45.51891919 -108.43478651 39.10704718 -95.57967287 32.6907416 C-91.08111563 30.44561522 -86.58141893 28.2027941 -82.08082801 25.96174747 C-62.7097328 16.3263442 -62.7097328 16.3263442 -43.52863216 6.31954098 C-29.94379783 -0.94180937 -15.04258266 -7.29413824 0 0 Z " fill="#2D9739" transform="translate(335.828125,106.69140625)"/>
<path d="M0 0 C0.81339844 -0.02191406 1.62679687 -0.04382812 2.46484375 -0.06640625 C9.60304094 1.66178886 13.67839381 8.74131458 17.6875 14.375 C18.92511814 16.08511551 20.16341046 17.79474329 21.40234375 19.50390625 C22.01706543 20.3561377 22.63178711 21.20836914 23.26513672 22.08642578 C25.88404698 25.69427526 28.56527772 29.2535379 31.25 32.8125 C32.21756156 34.10798805 33.1850103 35.40356037 34.15234375 36.69921875 C36.15451844 39.37354722 38.19344885 42.01489365 40.25390625 44.64453125 C41.27358074 45.97124409 42.29311704 47.29806315 43.3125 48.625 C43.79098389 49.22022461 44.26946777 49.81544922 44.76245117 50.42871094 C47.90110378 54.55922203 48.74310905 57.41381857 48.0625 62.5625 C46.0625 64.5625 46.0625 64.5625 43.81591797 64.78955078 C42.44910889 64.77384033 42.44910889 64.77384033 41.0546875 64.7578125 C39.57548828 64.74814453 39.57548828 64.74814453 38.06640625 64.73828125 C36.51759766 64.71314453 36.51759766 64.71314453 34.9375 64.6875 C33.37708984 64.67396484 33.37708984 64.67396484 31.78515625 64.66015625 C29.21070908 64.63653747 26.63671788 64.60360149 24.0625 64.5625 C24.10890625 65.44808594 24.1553125 66.33367187 24.203125 67.24609375 C24.96902171 93.53276308 13.61129352 118.92223362 -4.28613281 137.90185547 C-9.66592038 143.31186656 -15.58998977 148.33082651 -21.9375 152.5625 C-26.094435 152.27811617 -28.50414986 150.70160443 -31.73828125 148.17578125 C-32.63353516 147.48419922 -33.52878906 146.79261719 -34.45117188 146.08007812 C-35.37478516 145.35240234 -36.29839844 144.62472656 -37.25 143.875 C-39.07927998 142.45423767 -40.90870495 141.03366199 -42.73828125 139.61328125 C-44.05046631 138.58775146 -44.05046631 138.58775146 -45.38916016 137.54150391 C-48.87193149 134.83683401 -52.39701535 132.19097492 -55.9375 129.5625 C-54.65331174 125.70993522 -53.26847243 125.32769918 -49.8125 123.3125 C-37.61729665 115.7278703 -29.46282482 104.32363347 -25.546875 90.39453125 C-24.24279849 82.19389626 -24.63234612 73.83803842 -24.9375 65.5625 C-25.56317871 65.54268066 -26.18885742 65.52286133 -26.83349609 65.50244141 C-29.66026519 65.40735774 -32.48627815 65.29761254 -35.3125 65.1875 C-36.29734375 65.1565625 -37.2821875 65.125625 -38.296875 65.09375 C-39.23789062 65.05507812 -40.17890625 65.01640625 -41.1484375 64.9765625 C-42.01774902 64.9451416 -42.88706055 64.9137207 -43.78271484 64.88134766 C-45.9375 64.5625 -45.9375 64.5625 -47.9375 62.5625 C-48.70870522 57.88780987 -47.99727593 55.18171209 -45.3671875 51.390625 C-44.19878167 49.85192129 -43.01273276 48.32650879 -41.8125 46.8125 C-40.5229288 45.12799348 -39.23388125 43.44308597 -37.9453125 41.7578125 C-37.28047852 40.89961914 -36.61564453 40.04142578 -35.93066406 39.15722656 C-32.77797082 35.05301003 -29.73961543 30.86668034 -26.6875 26.6875 C-24.44319937 23.64159665 -22.19179245 20.60101381 -19.9375 17.5625 C-19.44169434 16.89331543 -18.94588867 16.22413086 -18.43505859 15.53466797 C-17.0893866 13.72551238 -15.734407 11.92384805 -14.375 10.125 C-13.63121094 9.13628906 -12.88742187 8.14757812 -12.12109375 7.12890625 C-8.54114616 2.9213471 -5.72186395 -0.00903928 0 0 Z " fill="#FFD45C" transform="translate(447.9375,15.4375)"/>
<path d="M0 0 C3.82875476 1.98093038 6.49337324 4.93210776 8 9 C7.31808594 9.63679688 6.63617188 10.27359375 5.93359375 10.9296875 C2.21309862 14.65671211 -0.81502109 18.89755005 -3.9375 23.125 C-4.58485107 23.99503662 -5.23220215 24.86507324 -5.89916992 25.76147461 C-7.9374965 28.50418837 -9.96935186 31.25159771 -12 34 C-13.00498535 35.35714111 -13.00498535 35.35714111 -14.03027344 36.74169922 C-17.11545364 40.90843084 -20.19688413 45.07792205 -23.26953125 49.25390625 C-23.75010986 49.90689697 -24.23068848 50.5598877 -24.72583008 51.23266602 C-27.27937874 54.77455886 -28.45094326 56.60330323 -28 61 C-25.51942372 63.48057628 -24.63807536 63.29019005 -21.2109375 63.4140625 C-19.79941406 63.47207031 -19.79941406 63.47207031 -18.359375 63.53125 C-17.37453125 63.5621875 -16.3896875 63.593125 -15.375 63.625 C-13.88613281 63.68300781 -13.88613281 63.68300781 -12.3671875 63.7421875 C-9.91164615 63.8366314 -7.4561159 63.92219875 -5 64 C-1.36980161 77.37710749 -4.57832028 91.55978442 -10.625 103.6875 C-16.66782315 113.9709008 -24.64161935 121.23002751 -35 127 C-33.87369516 130.37891451 -33.21486514 130.83368422 -30.40234375 132.8125 C-29.68369141 133.33070313 -28.96503906 133.84890625 -28.22460938 134.3828125 C-26.69726447 135.46277969 -25.16861199 136.54089997 -23.63867188 137.6171875 C-22.92130859 138.13539063 -22.20394531 138.65359375 -21.46484375 139.1875 C-20.46892212 139.88939453 -20.46892212 139.88939453 -19.45288086 140.60546875 C-18.97343018 141.06566406 -18.49397949 141.52585938 -18 142 C-18 145 -18 145 -19.79296875 146.859375 C-20.97826172 147.79523438 -20.97826172 147.79523438 -22.1875 148.75 C-22.96480469 149.38421875 -23.74210937 150.0184375 -24.54296875 150.671875 C-27 152 -27 152 -29.35351562 151.79467773 C-32.4212246 150.87351605 -34.27959932 149.58229827 -36.80078125 147.61328125 C-37.69603516 146.92169922 -38.59128906 146.23011719 -39.51367188 145.51757812 C-40.43728516 144.78990234 -41.36089844 144.06222656 -42.3125 143.3125 C-44.14177998 141.89173767 -45.97120495 140.47116199 -47.80078125 139.05078125 C-49.11296631 138.02525146 -49.11296631 138.02525146 -50.45166016 136.97900391 C-53.93443149 134.27433401 -57.45951535 131.62847492 -61 129 C-59.71581174 125.14743522 -58.33097243 124.76519918 -54.875 122.75 C-42.67979665 115.1653703 -34.52532482 103.76113347 -30.609375 89.83203125 C-29.30529849 81.63139626 -29.69484612 73.27553842 -30 65 C-30.62567871 64.98018066 -31.25135742 64.96036133 -31.89599609 64.93994141 C-34.72276519 64.84485774 -37.54877815 64.73511254 -40.375 64.625 C-41.35984375 64.5940625 -42.3446875 64.563125 -43.359375 64.53125 C-44.30039062 64.49257812 -45.24140625 64.45390625 -46.2109375 64.4140625 C-47.08024902 64.3826416 -47.94956055 64.3512207 -48.84521484 64.31884766 C-51 64 -51 64 -53 62 C-53.77120522 57.32530987 -53.05977593 54.61921209 -50.4296875 50.828125 C-49.26128167 49.28942129 -48.07523276 47.76400879 -46.875 46.25 C-45.5854288 44.56549348 -44.29638125 42.88058597 -43.0078125 41.1953125 C-42.34297852 40.33711914 -41.67814453 39.47892578 -40.99316406 38.59472656 C-37.84047082 34.49051003 -34.80211543 30.30418034 -31.75 26.125 C-29.50569937 23.07909665 -27.25429245 20.03851381 -25 17 C-24.50419434 16.33081543 -24.00838867 15.66163086 -23.49755859 14.97216797 C-22.1518866 13.16301238 -20.796907 11.36134805 -19.4375 9.5625 C-18.69371094 8.57378906 -17.94992187 7.58507812 -17.18359375 6.56640625 C-11.98737229 0.45921931 -7.92217908 -1.48303192 0 0 Z " fill="#FFC239" transform="translate(453,16)"/>
<path d="M0 0 C5.54772645 3.80646925 10.10735833 9.01188853 12.140625 15.46875 C13.23760886 23.88746331 11.7285024 30.69111014 6.6328125 37.4765625 C1.80567704 42.84254098 -3.29932624 44.90228432 -10.375 45.78125 C-16.38098695 46.07602237 -21.0134721 45.10317717 -25.859375 41.46875 C-32.49382404 35.26953964 -35.80740954 30.23583396 -36.234375 21.09375 C-36.06149574 14.36965668 -34.40452533 10.14210753 -29.765625 5.26953125 C-21.0360648 -2.83441047 -11.14510397 -5.61264228 0 0 Z " fill="#F0EFEF" transform="translate(403.859375,322.53125)"/>
</svg>
